<svg width="14" height="15" viewBox="0 0 14 15" fill="none" xmlns="http://www.w3.org/2000/svg">
<path fill-rule="evenodd" clip-rule="evenodd" d="M4.66342 3.36666C4.62997 3.70355 4.34573 3.96666 4.00004 3.96666C3.65435 3.96666 3.37011 3.70355 3.33667 3.36666H1.66671V4.43333H12.3334V3.36666H11.2634C11.23 3.70355 10.9457 3.96666 10.6 3.96666C10.2543 3.96666 9.97011 3.70355 9.93667 3.36666H4.66342ZM4.6634 3.36666H9.93665H4.6634ZM3.33337 2.03334V1.50001C3.33337 1.13182 3.63185 0.833344 4.00004 0.833344C4.36823 0.833344 4.66671 1.13182 4.66671 1.50001V2.03334H9.93337V1.50001C9.93337 1.13182 10.2319 0.833344 10.6 0.833344C10.9682 0.833344 11.2667 1.13182 11.2667 1.50001V2.03334H12.4C13.0996 2.03334 13.6667 2.60045 13.6667 3.30001V12.1667C13.6667 13.2712 12.7713 14.1667 11.6667 14.1667H2.33337C1.2288 14.1667 0.333374 13.2712 0.333374 12.1667V3.30001C0.333374 2.60045 0.90048 2.03334 1.60004 2.03334H3.33337ZM12.3334 5.76671H1.66671V12.1667C1.66671 12.5349 1.96518 12.8334 2.33337 12.8334H11.6667C12.0349 12.8334 12.3334 12.5349 12.3334 12.1667V5.76671ZM3.40001 8.16668C3.03182 8.16668 2.73334 7.8682 2.73334 7.50001C2.73334 7.13182 3.03182 6.83334 3.40001 6.83334H5.80001C6.1682 6.83334 6.46667 7.13182 6.46667 7.50001C6.46667 7.8682 6.1682 8.16668 5.80001 8.16668H3.40001ZM3.40001 10.5666C3.03182 10.5666 2.73334 10.2682 2.73334 9.89998C2.73334 9.53179 3.03182 9.23331 3.40001 9.23331H8.20001C8.5682 9.23331 8.86668 9.53179 8.86668 9.89998C8.86668 10.2682 8.5682 10.5666 8.20001 10.5666H3.40001Z" fill="#92929D"/>
</svg>
