<svg width="16" height="16" viewBox="0 0 16 16" fill="none" xmlns="http://www.w3.org/2000/svg">
<path fill-rule="evenodd" clip-rule="evenodd" d="M8.17163 8.98276L13.4765 2.25392C13.7045 1.96478 14.1236 1.91518 14.4128 2.14313C14.7019 2.37108 14.7515 2.79027 14.5236 3.07941L8.74213 10.4127C8.49073 10.7316 8.01505 10.7536 7.73532 10.4592L4.8501 7.42291C4.59647 7.15601 4.60724 6.73404 4.87415 6.48041C5.14105 6.22679 5.56302 6.23755 5.81665 6.50446L8.17163 8.98276ZM13.3334 7.40001C13.3334 7.03182 13.6319 6.73334 14 6.73334C14.3682 6.73334 14.6667 7.03182 14.6667 7.40001V12.2C14.6667 13.5623 13.5623 14.6667 12.2 14.6667H3.80004C2.43774 14.6667 1.33337 13.5623 1.33337 12.2V3.80001C1.33337 2.43771 2.43774 1.33334 3.80004 1.33334H10.9334C11.3016 1.33334 11.6 1.63182 11.6 2.00001C11.6 2.3682 11.3016 2.66668 10.9334 2.66668H3.80004C3.17412 2.66668 2.66671 3.17409 2.66671 3.80001V12.2C2.66671 12.8259 3.17412 13.3333 3.80004 13.3333H12.2C12.826 13.3333 13.3334 12.8259 13.3334 12.2V7.40001Z" fill="#92929D"/>
</svg>
