<svg width="16" height="16" viewBox="0 0 16 16" fill="none" xmlns="http://www.w3.org/2000/svg">
<path fill-rule="evenodd" clip-rule="evenodd" d="M7.99996 0.666656C12.05 0.666656 15.3333 3.9499 15.3333 7.99999C15.3333 12.0501 12.05 15.3333 7.99996 15.3333C3.94987 15.3333 0.666626 12.0501 0.666626 7.99999C0.666626 3.9499 3.94987 0.666656 7.99996 0.666656ZM7.99996 1.99999C4.68625 1.99999 1.99996 4.68628 1.99996 7.99999C1.99996 11.3137 4.68625 14 7.99996 14C11.3137 14 14 11.3137 14 7.99999C14 4.68628 11.3137 1.99999 7.99996 1.99999ZM7.99996 3.33332C8.36815 3.33332 8.66663 3.6318 8.66663 3.99999V7.67393L11.4093 9.80709C11.6999 10.0331 11.7522 10.452 11.5262 10.7426C11.3001 11.0332 10.8813 11.0856 10.5907 10.8596L7.59067 8.52622C7.42827 8.39992 7.33329 8.20572 7.33329 7.99999V3.99999C7.33329 3.6318 7.63177 3.33332 7.99996 3.33332Z" fill="#92929D"/>
</svg>
