<svg width="14" height="14" viewBox="0 0 14 14" fill="none" xmlns="http://www.w3.org/2000/svg">
<path fill-rule="evenodd" clip-rule="evenodd" d="M7.00004 13.6667C10.6819 13.6667 13.6667 10.6819 13.6667 7C13.6667 3.3181 10.6819 0.333332 7.00004 0.333332C3.31814 0.333332 0.333374 3.3181 0.333374 7C0.333374 10.6819 3.31814 13.6667 7.00004 13.6667ZM6.99998 12.4546C3.98752 12.4546 1.54544 10.0125 1.54544 7.00002C1.54544 3.98756 3.98752 1.54548 6.99998 1.54548C10.0124 1.54548 12.4545 3.98756 12.4545 7.00002C12.4545 10.0125 10.0124 12.4546 6.99998 12.4546ZM10.1463 4.62034C10.3042 4.14655 9.85347 3.6958 9.37967 3.85373L5.52273 5.13938C5.34176 5.1997 5.19975 5.34171 5.13942 5.52269L3.85377 9.37963C3.69584 9.85343 4.14659 10.3042 4.62039 10.1462L8.47733 8.8606C8.65831 8.80027 8.80031 8.65826 8.86064 8.47729L10.1463 4.62034ZM5.38702 8.61305L5.97346 6.85372L7.16007 8.02203L5.38702 8.61305ZM8.01964 7.16731L6.81887 5.98506L8.61308 5.38699L8.01964 7.16731Z" fill="#50B5FF"/>
</svg>
