<svg width="14" height="14" viewBox="0 0 14 14" fill="none" xmlns="http://www.w3.org/2000/svg">
<path fill-rule="evenodd" clip-rule="evenodd" d="M3.00004 7.00001H3.66671C5.13947 7.00001 6.33337 8.19392 6.33337 9.66668V11C6.33337 12.4728 5.13947 13.6667 3.66671 13.6667H3.00004C1.52728 13.6667 0.333374 12.4728 0.333374 11V9.66668C0.333374 8.19392 1.52728 7.00001 3.00004 7.00001ZM3.00004 8.33334C2.26366 8.33334 1.66671 8.9303 1.66671 9.66668V11C1.66671 11.7364 2.26366 12.3333 3.00004 12.3333H3.66671C4.40309 12.3333 5.00004 11.7364 5.00004 11V9.66668C5.00004 8.9303 4.40309 8.33334 3.66671 8.33334H3.00004ZM2.66671 0.333344C3.95537 0.333344 5.00004 1.37801 5.00004 2.66668V3.33334C5.00004 4.62201 3.95537 5.66668 2.66671 5.66668C1.37804 5.66668 0.333374 4.62201 0.333374 3.33334V2.66668C0.333374 1.37801 1.37804 0.333344 2.66671 0.333344ZM2.66671 1.66668C2.11442 1.66668 1.66671 2.11439 1.66671 2.66668V3.33334C1.66671 3.88563 2.11442 4.33334 2.66671 4.33334C3.21899 4.33334 3.66671 3.88563 3.66671 3.33334V2.66668C3.66671 2.11439 3.21899 1.66668 2.66671 1.66668ZM10.3334 6.33334H11C12.4728 6.33334 13.6667 7.52725 13.6667 9.00001V11C13.6667 12.4728 12.4728 13.6667 11 13.6667H10.3334C8.86061 13.6667 7.66671 12.4728 7.66671 11V9.00001C7.66671 7.52725 8.86061 6.33334 10.3334 6.33334ZM10.3334 7.66668C9.59699 7.66668 9.00004 8.26363 9.00004 9.00001V11C9.00004 11.7364 9.59699 12.3333 10.3334 12.3333H11C11.7364 12.3333 12.3334 11.7364 12.3334 11V9.00001C12.3334 8.26363 11.7364 7.66668 11 7.66668H10.3334ZM8.66671 0.333344H11.3334C12.622 0.333344 13.6667 1.37801 13.6667 2.66668C13.6667 3.95534 12.622 5.00001 11.3334 5.00001H8.66671C7.37804 5.00001 6.33337 3.95534 6.33337 2.66668C6.33337 1.37801 7.37804 0.333344 8.66671 0.333344ZM8.66671 1.66668C8.11442 1.66668 7.66671 2.11439 7.66671 2.66668C7.66671 3.21896 8.11442 3.66668 8.66671 3.66668H11.3334C11.8857 3.66668 12.3334 3.21896 12.3334 2.66668C12.3334 2.11439 11.8857 1.66668 11.3334 1.66668H8.66671Z" fill="#92929D"/>
</svg>
