<svg width="14" height="14" viewBox="0 0 14 14" fill="none" xmlns="http://www.w3.org/2000/svg">
<path fill-rule="evenodd" clip-rule="evenodd" d="M2.12198 2.12194C-0.262826 4.50675 -0.262826 8.37327 2.12198 10.7581C4.39274 13.0288 8.00691 13.1374 10.4061 11.0838L12.7868 13.4644L12.7868 13.4644L12.7868 13.4644C13.4153 14.093 14.3582 13.1502 13.7296 12.5216L11.3202 10.1122C13.1253 7.71956 12.9379 4.30177 10.7581 2.12194C8.3733 -0.262857 4.50678 -0.262857 2.12198 2.12194ZM3.06478 3.06475C4.92889 1.20065 7.95119 1.20065 9.8153 3.06475C11.6794 4.92886 11.6794 7.95116 9.8153 9.81527C7.95119 11.6794 4.92889 11.6794 3.06478 9.81527C1.20068 7.95116 1.20068 4.92886 3.06478 3.06475Z" fill="#0062FF"/>
</svg>
